<!--?xml version="1.0" encoding="utf-8"?-->
<!-- Generator: Adobe Illustrator 18.1.1, SVG Export Plug-In . SVG Version: 6.00 Build 0)  -->

<svg version="1.1" id="_x32_" xmlns="http://www.w3.org/2000/svg" xmlns:xlink="http://www.w3.org/1999/xlink" x="0px" y="0px" viewBox="0 0 512 512" style="width: 256px; height: 256px; opacity: 1;" xml:space="preserve">
<style type="text/css">
	.st0{fill:#4B4B4B;}
</style>
<g>
	<path class="st0" d="M33.394,458.311h242.247V318.635h116.323v139.676h86.642V222.61H33.394V458.311z M120.69,318.635h69.838
		v69.838H120.69V318.635z" style="fill: rgb(75, 75, 75);"></path>
	<path class="st0" d="M310.836,368.565c-5.877,0-10.64,4.77-10.64,10.644v35.46c0,5.873,4.764,10.636,10.64,10.636
		c5.874,0,10.637-4.763,10.637-10.636v-35.46C321.473,373.335,316.71,368.565,310.836,368.565z" style="fill: rgb(75, 75, 75);"></path>
	<polygon class="st0" points="230.104,53.689 158.593,53.689 143.977,196.421 226.22,196.421 	" style="fill: rgb(75, 75, 75);"></polygon>
	<polygon class="st0" points="368.026,196.421 353.408,53.689 281.896,53.689 285.781,196.421 	" style="fill: rgb(75, 75, 75);"></polygon>
	<polygon class="st0" points="512,196.421 478.606,53.689 405.207,53.689 427.591,196.421 	" style="fill: rgb(75, 75, 75);"></polygon>
	<polygon class="st0" points="106.794,53.689 33.394,53.689 0,196.421 84.409,196.421 	" style="fill: rgb(75, 75, 75);"></polygon>
</g>
</svg>
